<?xml version="1.0" encoding="UTF-8" standalone="no"?><!DOCTYPE svg PUBLIC "-//W3C//DTD SVG 1.1//EN" "http://www.w3.org/Graphics/SVG/1.1/DTD/svg11.dtd"><svg width="100%" height="100%" viewBox="0 0 400 450" version="1.1" xmlns="http://www.w3.org/2000/svg" xmlns:xlink="http://www.w3.org/1999/xlink" xml:space="preserve" xmlns:serif="http://www.serif.com/" style="fill-rule:evenodd;clip-rule:evenodd;stroke-linejoin:round;stroke-miterlimit:2;"><path d="M0,450l0,-450l400,0l-0,450l-400,0Z" style="fill:#0053a0;"/><g><path d="M393.983,349.565l0.006,43.671l-296.136,0.05l5.003,-8.097c46.255,-1.475 89.532,-13.174 131.938,-35.634l159.189,0.01Z" style="fill:#fff;fill-rule:nonzero;"/><path d="M393.98,331.789l0.007,9.41l-161.008,-0.002c-43.826,23.512 -91.615,36.567 -144.813,35.761c-18.629,-0.579 -45.784,-3.775 -62.975,-8.264l-0.007,-62.338c17.187,-4.182 44.342,-7.15 62.971,-7.699c53.197,-0.756 100.987,11.35 144.821,33.183l161.004,-0.051Z" style="fill:#fff;fill-rule:nonzero;"/><path d="M393.965,276.062l0.012,47.989l-159.19,0.023c-13.457,-6.617 -26.988,-12.217 -40.679,-16.837c9.123,-1.958 18.794,-4.374 28.194,-7.531c21.256,-6.191 40.692,-15.329 57.053,-23.623l114.61,-0.021Z" style="fill:#fff;fill-rule:nonzero;"/><path d="M393.97,259.029l0.004,9.267l-116.473,0.02c-18.558,9.452 -37.455,18.155 -57.504,23.982c-13.02,4.377 -26.639,7.329 -40.405,9.922c-9.86,-2.8 -19.787,-5.469 -30.132,-7.172c-21.089,-4.04 -43.183,-4.776 -66.191,-4.225l-13.098,0.887l-0.119,-58.117c17.186,-4.184 44.345,-7.156 62.97,-7.702c53.199,-0.769 100.991,11.347 144.81,33.19l116.138,-0.052Z" style="fill:#fff;fill-rule:nonzero;"/><path d="M393.957,203.31l0.001,47.947l-114.305,0.06c-13.444,-6.622 -26.98,-12.226 -40.671,-16.854c9.124,-1.95 18.807,-4.36 28.205,-7.521c21.239,-6.187 40.673,-15.329 57.036,-23.618l69.734,-0.014Z" style="fill:#fff;fill-rule:nonzero;"/><path d="M393.957,186.263l-0,9.274l-71.578,0.021c-18.561,9.449 -37.46,18.151 -57.519,23.97c-13.01,4.385 -26.637,7.325 -40.404,9.929c-9.862,-2.805 -19.779,-5.466 -30.119,-7.18c-21.086,-4.029 -43.196,-4.765 -66.194,-4.22l-13.114,0.897l-0.104,-58.133c17.189,-4.175 44.335,-7.143 62.973,-7.694c53.198,-0.768 100.992,11.356 144.813,33.189l71.246,-0.053Z" style="fill:#fff;fill-rule:nonzero;"/><path d="M393.944,130.55l0.005,47.946l-69.43,0.041c-13.446,-6.606 -26.974,-12.221 -40.665,-16.831c9.122,-1.959 18.801,-4.378 28.196,-7.544c21.251,-6.172 40.687,-15.322 57.05,-23.608l24.844,-0.004Z" style="fill:#fff;fill-rule:nonzero;"/><path d="M393.943,113.508l-0,9.279l-26.703,0.005c-18.56,9.451 -37.453,18.142 -57.505,23.963c-13.011,4.399 -26.633,7.342 -40.398,9.944c-9.856,-2.813 -19.789,-5.479 -30.131,-7.186c-21.094,-4.038 -43.193,-4.76 -66.19,-4.214l-13.108,0.881l-0.111,-58.124c17.189,-4.179 44.336,-7.144 62.963,-7.697c53.203,-0.758 101,11.345 144.822,33.178l26.361,-0.029Z" style="fill:#fff;fill-rule:nonzero;"/><path d="M393.934,56.714l0.003,49.027l-24.547,0.032c-25.377,-12.476 -51.064,-21.378 -77.514,-26.802l13.733,-22.243l88.325,-0.014Z" style="fill:#fff;fill-rule:nonzero;"/><path d="M238.982,234.463l-0.011,0.003l-0.001,-0.008c0.009,0.005 0.009,0.005 0.012,0.005" style="fill:#fff;fill-rule:nonzero;"/></g></svg>