<svg xmlns="http://www.w3.org/2000/svg" width="182.59" height="27.389" viewBox="0 0 182.59 27.389">
  <g id="proteuslogo" transform="translate(0 -6.249)">
    <rect id="Rectangle_127" data-name="Rectangle 127" width="100.921" height="20.817" transform="translate(0 12.821)" fill="#004e9f"/>
    <path id="Path_967" data-name="Path 967" d="M36.153,95.037h6a5.411,5.411,0,0,1,3.728,1.146,4.258,4.258,0,0,1,1.278,3.342,4.619,4.619,0,0,1-1.278,3.527,5.237,5.237,0,0,1-3.728,1.205q-1.737-.01-3.005.02v5.1h-3Zm3,6.752h2.5a2.779,2.779,0,0,0,1.888-.556,2.123,2.123,0,0,0,.63-1.678,1.865,1.865,0,0,0-.63-1.537,2.944,2.944,0,0,0-1.888-.512h-2.5Z" transform="translate(-32.187 -79.047)" fill="#fff"/>
    <path id="Path_968" data-name="Path 968" d="M163.066,109.378h-3.039c-.078-.15-.043-1.991-.05-2.557l-.019-1.327a1.65,1.65,0,0,0-.57-1.376,3.13,3.13,0,0,0-1.828-.41h-2.986v5.669h-3V95.034h7.231a4.834,4.834,0,0,1,3.3,1.1,3.66,3.66,0,0,1,1.254,2.893,3.407,3.407,0,0,1-1.4,3.025,3.921,3.921,0,0,1-.839.429,3.688,3.688,0,0,1,.478.234,2.729,2.729,0,0,1,1.278,2.459l.068,2.352a12.98,12.98,0,0,0,.111,1.854m-8.493-8.08h3.474a2.712,2.712,0,0,0,1.742-.473,1.736,1.736,0,0,0,.581-1.43,1.77,1.77,0,0,0-.551-1.42,2.485,2.485,0,0,0-1.654-.473h-3.591v3.8Z" transform="translate(-134.949 -79.044)" fill="#fff"/>
    <path id="Path_969" data-name="Path 969" d="M276.084,104.581a7.743,7.743,0,0,1-1.864-5.465,8.008,8.008,0,0,1,1.864-5.577,7.168,7.168,0,0,1,10.066,0,8.022,8.022,0,0,1,1.859,5.577,7.757,7.757,0,0,1-1.859,5.465,7.28,7.28,0,0,1-10.066,0m7.894-1.839a5.75,5.75,0,0,0,1.034-3.645,5.989,5.989,0,0,0-1.034-3.727,3.719,3.719,0,0,0-5.728,0,5.986,5.986,0,0,0-1.035,3.727,5.767,5.767,0,0,0,1.03,3.645,3.786,3.786,0,0,0,5.733,0" transform="translate(-244.136 -75.877)" fill="#fff"/>
    <path id="Path_970" data-name="Path 970" d="M411.778,97.584h-4.332V95.037h11.661v2.547h-4.332v11.8h-3Z" transform="translate(-362.745 -79.047)" fill="#fff"/>
    <path id="Path_971" data-name="Path 971" d="M533.045,109.381V95.037H543.6v2.547h-7.562v3.044h7.016V103.1h-7.016v3.737h7.894v2.547Z" transform="translate(-474.565 -79.047)" fill="#fff"/>
    <path id="Path_972" data-name="Path 972" d="M665.326,103.973q.01,3.074-1.352,4.435t-4.435,1.361a5.072,5.072,0,0,1-5.8-5.8V95.035h3v9.036a3.351,3.351,0,0,0,.7,2.313,2.7,2.7,0,0,0,2.1.771,2.789,2.789,0,0,0,2.147-.707,3.5,3.5,0,0,0,.644-2.376V95.035h3v8.938Z" transform="translate(-582.022 -79.045)" fill="#fff"/>
    <path id="Path_973" data-name="Path 973" d="M784.83,96.171a2.126,2.126,0,0,0-.9-1.625,3.528,3.528,0,0,0-2.136-.6,2.835,2.835,0,0,0-1.785.5,1.677,1.677,0,0,0-.643,1.4,1.087,1.087,0,0,0,.673,1,13.559,13.559,0,0,0,2.82.83,10.275,10.275,0,0,1,4.186,1.62,3.653,3.653,0,0,1,1.055,2.918,3.791,3.791,0,0,1-1.59,3.205,7.042,7.042,0,0,1-4.3,1.186,6.516,6.516,0,0,1-4.254-1.259,4.674,4.674,0,0,1-1.639-3.581h2.889a2.235,2.235,0,0,0,.829,1.756,3.434,3.434,0,0,0,2.176.615,4.518,4.518,0,0,0,2.239-.463,1.425,1.425,0,0,0,.8-1.284,1.322,1.322,0,0,0-.58-1.19,8.247,8.247,0,0,0-2.418-.79,12.77,12.77,0,0,1-4.564-1.649,3.24,3.24,0,0,1-1.142-2.742,4.038,4.038,0,0,1,1.512-3.313,6.307,6.307,0,0,1,4.087-1.225,5.9,5.9,0,0,1,3.922,1.268,4.748,4.748,0,0,1,1.678,3.425Z" transform="translate(-691.148 -75.879)" fill="#fff"/>
    <path id="Path_974" data-name="Path 974" d="M956.322,109.381V95.037H966.88v2.547h-7.563v3.044h7.016V103.1h-7.016v3.737h7.894v2.547Z" transform="translate(-851.404 -79.047)"/>
    <path id="Path_975" data-name="Path 975" d="M1209.37,109.381V95.037h10.557v2.547h-7.562v3.044h7.016V103.1h-7.016v3.737h7.895v2.547Z" transform="translate(-1076.691 -79.047)"/>
    <path id="Path_976" data-name="Path 976" d="M1323.9,97.584h-4.333V95.037h11.661v2.547H1326.9v11.8H1323.9Z" transform="translate(-1174.801 -79.047)"/>
    <path id="Path_977" data-name="Path 977" d="M1442.13,109.381V95.037h10.559v2.547h-7.562v3.044h7.016V103.1h-7.016v3.737h7.893v2.547Z" transform="translate(-1283.915 -79.047)"/>
    <path id="Path_978" data-name="Path 978" d="M1565.4,96.171a2.125,2.125,0,0,0-.9-1.625,3.527,3.527,0,0,0-2.135-.6,2.834,2.834,0,0,0-1.785.5,1.677,1.677,0,0,0-.644,1.4,1.088,1.088,0,0,0,.673,1,13.567,13.567,0,0,0,2.82.83,10.274,10.274,0,0,1,4.186,1.62,3.654,3.654,0,0,1,1.055,2.918,3.79,3.79,0,0,1-1.59,3.205,7.04,7.04,0,0,1-4.3,1.186,6.513,6.513,0,0,1-4.254-1.259,4.671,4.671,0,0,1-1.639-3.581h2.888a2.237,2.237,0,0,0,.829,1.756,3.437,3.437,0,0,0,2.176.615,4.517,4.517,0,0,0,2.239-.463,1.424,1.424,0,0,0,.8-1.284,1.322,1.322,0,0,0-.58-1.19,8.257,8.257,0,0,0-2.419-.79,12.762,12.762,0,0,1-4.563-1.649,3.239,3.239,0,0,1-1.143-2.742,4.038,4.038,0,0,1,1.512-3.313,6.306,6.306,0,0,1,4.087-1.225,5.9,5.9,0,0,1,3.921,1.268,4.743,4.743,0,0,1,1.678,3.425Z" transform="translate(-1386.085 -75.879)"/>
    <path id="Path_979" data-name="Path 979" d="M1088.992,109.339h-3.039c-.078-.149-.043-1.991-.05-2.557l-.019-1.327a1.651,1.651,0,0,0-.57-1.376,3.129,3.129,0,0,0-1.829-.41H1080.5v5.67h-3V95h7.23a4.836,4.836,0,0,1,3.3,1.1,3.662,3.662,0,0,1,1.254,2.893,3.407,3.407,0,0,1-1.4,3.025,3.929,3.929,0,0,1-.839.429,3.666,3.666,0,0,1,.478.234,2.729,2.729,0,0,1,1.278,2.459l.068,2.351a12.9,12.9,0,0,0,.111,1.854m-8.493-8.08h3.474a2.715,2.715,0,0,0,1.742-.473,1.737,1.737,0,0,0,.58-1.43,1.772,1.772,0,0,0-.551-1.42,2.485,2.485,0,0,0-1.654-.473h-3.59v3.8Z" transform="translate(-959.292 -79.01)"/>
    <g id="Group_409" data-name="Group 409" transform="translate(0.465 6.249)">
      <path id="Path_980" data-name="Path 980" d="M4.234,7.362H6.169A1.814,1.814,0,0,1,7.7,8.071a2.637,2.637,0,0,1,.484,1.638A3.3,3.3,0,0,1,7.9,11.1a1.764,1.764,0,0,1-1.733,1.1H4.234ZM6.04,11.643a1.737,1.737,0,0,0,.535-.069,1.182,1.182,0,0,0,.612-.494,2.056,2.056,0,0,0,.274-.751,2.937,2.937,0,0,0,.048-.508,2.4,2.4,0,0,0-.35-1.4,1.279,1.279,0,0,0-1.126-.5H4.9v3.717Z" transform="translate(-4.234 -7.24)" fill="#004e9f"/>
      <path id="Path_981" data-name="Path 981" d="M48.221,18.773a1.337,1.337,0,0,1,.534.456,1.579,1.579,0,0,1,.236.623,4.1,4.1,0,0,1,.052.778H46.476a1.526,1.526,0,0,0,.252.864.839.839,0,0,0,.729.325.938.938,0,0,0,.736-.308,1.049,1.049,0,0,0,.218-.414h.583a1.226,1.226,0,0,1-.153.433,1.561,1.561,0,0,1-.29.391,1.37,1.37,0,0,1-.664.356,2.006,2.006,0,0,1-.481.053,1.474,1.474,0,0,1-1.11-.479,1.873,1.873,0,0,1-.455-1.343,2.037,2.037,0,0,1,.458-1.381,1.509,1.509,0,0,1,1.2-.53A1.591,1.591,0,0,1,48.221,18.773Zm.213,1.386a1.551,1.551,0,0,0-.167-.616.853.853,0,0,0-.807-.429.892.892,0,0,0-.68.3,1.12,1.12,0,0,0-.291.75Z" transform="translate(-41.275 -17.242)" fill="#004e9f"/>
      <path id="Path_982" data-name="Path 982" d="M82.036,7.362h.593V12.2h-.593Z" transform="translate(-73.5 -7.24)" fill="#004e9f"/>
      <path id="Path_983" data-name="Path 983" d="M93.05,7.033a.908.908,0,0,1,.8-.3q.056,0,.115,0l.135.01v.54l-.135-.008-.078,0q-.273,0-.327.14a2.749,2.749,0,0,0-.053.713H94.1V8.6h-.593v3.045h-.587V8.6H92.43V8.127h.491V7.574A1.055,1.055,0,0,1,93.05,7.033Z" transform="translate(-82.754 -6.677)" fill="#004e9f"/>
      <path id="Path_984" data-name="Path 984" d="M109.851,10.335h.6v.985h.564V11.8h-.564v2.3a.249.249,0,0,0,.125.247.532.532,0,0,0,.231.036l.092,0c.033,0,.071-.005.116-.011v.471a1.317,1.317,0,0,1-.213.043,2.026,2.026,0,0,1-.239.013.643.643,0,0,1-.563-.213.944.944,0,0,1-.148-.552V11.8h-.478V11.32h.478v-.985Z" transform="translate(-97.838 -9.887)" fill="#004e9f"/>
      <path id="Path_985" data-name="Path 985" d="M128.325,20.989a.851.851,0,0,0,.151.455.961.961,0,0,0,.794.287,1.191,1.191,0,0,0,.592-.143.474.474,0,0,0,.256-.443.378.378,0,0,0-.2-.346,2.457,2.457,0,0,0-.516-.168l-.479-.119a2.361,2.361,0,0,1-.677-.25.747.747,0,0,1-.389-.666,1.012,1.012,0,0,1,.366-.811,1.472,1.472,0,0,1,.984-.31,1.374,1.374,0,0,1,1.166.468,1.008,1.008,0,0,1,.217.639h-.56a.67.67,0,0,0-.145-.364.942.942,0,0,0-.725-.233.885.885,0,0,0-.521.128.4.4,0,0,0-.177.338.415.415,0,0,0,.233.368,1.4,1.4,0,0,0,.4.145l.4.1a3.134,3.134,0,0,1,.873.3.794.794,0,0,1,.346.715,1.083,1.083,0,0,1-.362.814,1.554,1.554,0,0,1-1.1.343,1.49,1.49,0,0,1-1.129-.358,1.344,1.344,0,0,1-.355-.885h.57Z" transform="translate(-114.204 -17.133)" fill="#004e9f"/>
      <path id="Path_986" data-name="Path 986" d="M161.047,18.773a1.338,1.338,0,0,1,.534.456,1.578,1.578,0,0,1,.236.623,4.09,4.09,0,0,1,.053.778H159.3a1.525,1.525,0,0,0,.252.864.839.839,0,0,0,.729.325.938.938,0,0,0,.736-.308,1.049,1.049,0,0,0,.218-.414h.583a1.226,1.226,0,0,1-.153.433,1.558,1.558,0,0,1-.291.391,1.369,1.369,0,0,1-.664.356,2.006,2.006,0,0,1-.481.053,1.473,1.473,0,0,1-1.11-.479,1.873,1.873,0,0,1-.455-1.343,2.037,2.037,0,0,1,.458-1.381,1.509,1.509,0,0,1,1.2-.53A1.591,1.591,0,0,1,161.047,18.773Zm.213,1.386a1.551,1.551,0,0,0-.167-.616.853.853,0,0,0-.807-.429.892.892,0,0,0-.68.3,1.12,1.12,0,0,0-.291.75Z" transform="translate(-141.723 -17.242)" fill="#004e9f"/>
      <path id="Path_987" data-name="Path 987" d="M213.409,9.65a1.357,1.357,0,0,0,.187.669,1.222,1.222,0,0,0,1.108.481,1.9,1.9,0,0,0,.648-.105.742.742,0,0,0,.565-.732.64.64,0,0,0-.24-.563,2.371,2.371,0,0,0-.76-.287l-.635-.148a2.819,2.819,0,0,1-.881-.32,1.023,1.023,0,0,1-.447-.906,1.414,1.414,0,0,1,.439-1.071,1.733,1.733,0,0,1,1.244-.419,2.12,2.12,0,0,1,1.259.368,1.34,1.34,0,0,1,.518,1.175H215.8a1.249,1.249,0,0,0-.2-.6,1.15,1.15,0,0,0-.976-.379,1.1,1.1,0,0,0-.8.244.778.778,0,0,0-.243.567.557.557,0,0,0,.287.521,4.118,4.118,0,0,0,.853.264l.658.155a1.984,1.984,0,0,1,.734.306,1.162,1.162,0,0,1,.447.985,1.239,1.239,0,0,1-.57,1.15,2.506,2.506,0,0,1-1.326.346,1.951,1.951,0,0,1-1.379-.461,1.576,1.576,0,0,1-.489-1.242h.616Z" transform="translate(-189.912 -6.249)" fill="#004e9f"/>
      <path id="Path_988" data-name="Path 988" d="M252.02,10.335h.6v.985h.564V11.8h-.564v2.3a.249.249,0,0,0,.125.247.532.532,0,0,0,.231.036l.092,0c.033,0,.071-.005.115-.011v.471a1.315,1.315,0,0,1-.213.043,2.024,2.024,0,0,1-.239.013.644.644,0,0,1-.564-.213.944.944,0,0,1-.148-.552V11.8h-.478V11.32h.478v-.985Z" transform="translate(-224.41 -9.887)" fill="#004e9f"/>
      <path id="Path_989" data-name="Path 989" d="M272.4,19.317V21.66a1.007,1.007,0,0,0,.084.442.58.58,0,0,0,.574.317.812.812,0,0,0,.822-.554,2.25,2.25,0,0,0,.119-.814V19.317h.593v3.53h-.56l.007-.521a1.192,1.192,0,0,1-.281.339,1.223,1.223,0,0,1-.809.277,1.037,1.037,0,0,1-1.009-.5,1.524,1.524,0,0,1-.146-.722v-2.4Z" transform="translate(-242.438 -17.883)" fill="#004e9f"/>
      <path id="Path_990" data-name="Path 990" d="M306.032,8.649a1.586,1.586,0,0,1,.358.346V7.212h.57V12.07h-.534v-.491a1.279,1.279,0,0,1-.489.471,1.4,1.4,0,0,1-.647.145,1.307,1.307,0,0,1-1.018-.5,1.944,1.944,0,0,1-.43-1.32,2.285,2.285,0,0,1,.392-1.337,1.283,1.283,0,0,1,1.121-.565A1.249,1.249,0,0,1,306.032,8.649ZM304.707,11.3a.837.837,0,0,0,.767.382.807.807,0,0,0,.674-.354,1.679,1.679,0,0,0,.264-1.017,1.509,1.509,0,0,0-.272-.99.847.847,0,0,0-.672-.321.886.886,0,0,0-.723.343,1.576,1.576,0,0,0-.277,1.008A1.754,1.754,0,0,0,304.707,11.3Z" transform="translate(-270.972 -7.106)" fill="#004e9f"/>
      <path id="Path_991" data-name="Path 991" d="M340.89,18.773a1.336,1.336,0,0,1,.534.456,1.581,1.581,0,0,1,.236.623,4.109,4.109,0,0,1,.052.778h-2.567a1.526,1.526,0,0,0,.252.864.839.839,0,0,0,.729.325.937.937,0,0,0,.736-.308,1.046,1.046,0,0,0,.218-.414h.583a1.22,1.22,0,0,1-.153.433,1.555,1.555,0,0,1-.29.391,1.369,1.369,0,0,1-.664.356,2.006,2.006,0,0,1-.481.053,1.473,1.473,0,0,1-1.11-.479,1.873,1.873,0,0,1-.455-1.343,2.037,2.037,0,0,1,.459-1.381,1.509,1.509,0,0,1,1.2-.53A1.591,1.591,0,0,1,340.89,18.773Zm.213,1.386a1.549,1.549,0,0,0-.167-.616.853.853,0,0,0-.807-.429.891.891,0,0,0-.68.3,1.119,1.119,0,0,0-.291.75Z" transform="translate(-301.836 -17.242)" fill="#004e9f"/>
      <path id="Path_992" data-name="Path 992" d="M374.555,18.676h.564v.5a1.582,1.582,0,0,1,.531-.445,1.415,1.415,0,0,1,.623-.135,1.027,1.027,0,0,1,1.015.524,1.861,1.861,0,0,1,.145.821v2.264h-.6V19.981a1.2,1.2,0,0,0-.1-.521.579.579,0,0,0-.573-.329,1.169,1.169,0,0,0-.346.043.892.892,0,0,0-.429.29.876.876,0,0,0-.193.361,2.437,2.437,0,0,0-.044.532v1.849h-.593v-3.53Z" transform="translate(-333.927 -17.242)" fill="#004e9f"/>
      <path id="Path_993" data-name="Path 993" d="M405.974,10.335h.6v.985h.564V11.8h-.564v2.3a.249.249,0,0,0,.125.247.531.531,0,0,0,.231.036l.092,0c.033,0,.071-.005.115-.011v.471a1.316,1.316,0,0,1-.213.043,2.027,2.027,0,0,1-.239.013.644.644,0,0,1-.563-.213.944.944,0,0,1-.148-.552V11.8H405.5V11.32h.478Z" transform="translate(-361.474 -9.887)" fill="#004e9f"/>
      <path id="Path_994" data-name="Path 994" d="M426.413,18.773a1.336,1.336,0,0,1,.534.456,1.581,1.581,0,0,1,.236.623,4.1,4.1,0,0,1,.052.778h-2.567a1.525,1.525,0,0,0,.252.864.839.839,0,0,0,.729.325.938.938,0,0,0,.736-.308,1.047,1.047,0,0,0,.218-.414h.583a1.22,1.22,0,0,1-.153.433,1.554,1.554,0,0,1-.29.391,1.369,1.369,0,0,1-.664.356,2.005,2.005,0,0,1-.481.053,1.473,1.473,0,0,1-1.11-.479,1.873,1.873,0,0,1-.455-1.343,2.037,2.037,0,0,1,.458-1.381,1.509,1.509,0,0,1,1.2-.53A1.591,1.591,0,0,1,426.413,18.773Zm.213,1.386a1.549,1.549,0,0,0-.167-.616.853.853,0,0,0-.807-.429.891.891,0,0,0-.68.3,1.119,1.119,0,0,0-.291.75Z" transform="translate(-377.976 -17.242)" fill="#004e9f"/>
      <path id="Path_995" data-name="Path 995" d="M460.078,18.676h.564v.5a1.58,1.58,0,0,1,.531-.445,1.415,1.415,0,0,1,.623-.135,1.027,1.027,0,0,1,1.015.524,1.862,1.862,0,0,1,.145.821v2.264h-.6V19.981a1.205,1.205,0,0,0-.1-.521.579.579,0,0,0-.573-.329,1.169,1.169,0,0,0-.346.043.891.891,0,0,0-.429.29.873.873,0,0,0-.193.361,2.433,2.433,0,0,0-.045.532v1.849h-.593v-3.53Z" transform="translate(-410.068 -17.242)" fill="#004e9f"/>
      <path id="Path_996" data-name="Path 996" d="M514.8,7.362h2.2a2.16,2.16,0,0,1,.9.161,1.146,1.146,0,0,1,.67,1.144,1.19,1.19,0,0,1-.682,1.157.993.993,0,0,1,.427.3,1.089,1.089,0,0,1,.16.61l.023.649a2,2,0,0,0,.046.412.4.4,0,0,0,.211.3V12.2h-.8a.611.611,0,0,1-.053-.161,3.094,3.094,0,0,1-.033-.382l-.04-.807a.682.682,0,0,0-.343-.636,1.38,1.38,0,0,0-.573-.089h-1.451V12.2H514.8Zm2.13,2.218a1.21,1.21,0,0,0,.71-.185.761.761,0,0,0,.261-.666.719.719,0,0,0-.365-.705,1.165,1.165,0,0,0-.523-.1h-1.558V9.58h1.474Z" transform="translate(-458.79 -7.24)" fill="#004e9f"/>
      <path id="Path_997" data-name="Path 997" d="M558.4,18.841a1.781,1.781,0,0,1,.468,1.337,2.3,2.3,0,0,1-.412,1.409,1.488,1.488,0,0,1-1.28.556,1.44,1.44,0,0,1-1.149-.492,1.951,1.951,0,0,1-.425-1.322,2.111,2.111,0,0,1,.448-1.416,1.5,1.5,0,0,1,1.2-.527A1.582,1.582,0,0,1,558.4,18.841Zm-.368,2.346a2.243,2.243,0,0,0,.217-.993,1.783,1.783,0,0,0-.156-.8.879.879,0,0,0-.854-.487.84.84,0,0,0-.782.415,1.937,1.937,0,0,0-.245,1,1.684,1.684,0,0,0,.245.938.858.858,0,0,0,.776.375A.808.808,0,0,0,558.029,21.187Z" transform="translate(-495.109 -17.055)" fill="#004e9f"/>
      <path id="Path_998" data-name="Path 998" d="M592.556,18.773a1.335,1.335,0,0,1,.534.456,1.578,1.578,0,0,1,.236.623,4.09,4.09,0,0,1,.052.778h-2.567a1.525,1.525,0,0,0,.252.864.839.839,0,0,0,.729.325.937.937,0,0,0,.736-.308,1.047,1.047,0,0,0,.218-.414h.583a1.228,1.228,0,0,1-.153.433,1.566,1.566,0,0,1-.29.391,1.37,1.37,0,0,1-.664.356,2.007,2.007,0,0,1-.481.053,1.473,1.473,0,0,1-1.11-.479,1.873,1.873,0,0,1-.455-1.343,2.038,2.038,0,0,1,.458-1.381,1.509,1.509,0,0,1,1.2-.53A1.592,1.592,0,0,1,592.556,18.773Zm.213,1.386a1.553,1.553,0,0,0-.167-.616.853.853,0,0,0-.807-.429.892.892,0,0,0-.68.3,1.119,1.119,0,0,0-.291.75Z" transform="translate(-525.892 -17.242)" fill="#004e9f"/>
      <path id="Path_999" data-name="Path 999" d="M626.222,7.362h.6v.672h-.6Zm0,1.328h.6V12.2h-.6Z" transform="translate(-557.984 -7.24)" fill="#004e9f"/>
      <path id="Path_1000" data-name="Path 1000" d="M636.958,19.317l.943,2.874.982-2.874h.649l-1.328,3.53h-.632l-1.3-3.53Z" transform="translate(-566.929 -17.883)" fill="#004e9f"/>
      <path id="Path_1001" data-name="Path 1001" d="M671.2,18.773a1.336,1.336,0,0,1,.534.456,1.577,1.577,0,0,1,.236.623,4.1,4.1,0,0,1,.052.778h-2.567a1.525,1.525,0,0,0,.252.864.839.839,0,0,0,.729.325.938.938,0,0,0,.736-.308,1.049,1.049,0,0,0,.218-.414h.583a1.226,1.226,0,0,1-.153.433,1.56,1.56,0,0,1-.291.391,1.369,1.369,0,0,1-.664.356,2,2,0,0,1-.481.053,1.473,1.473,0,0,1-1.11-.479,1.873,1.873,0,0,1-.455-1.343,2.038,2.038,0,0,1,.458-1.381,1.509,1.509,0,0,1,1.2-.53A1.592,1.592,0,0,1,671.2,18.773Zm.212,1.386a1.548,1.548,0,0,0-.167-.616.853.853,0,0,0-.807-.429.892.892,0,0,0-.68.3,1.119,1.119,0,0,0-.291.75Z" transform="translate(-595.907 -17.242)" fill="#004e9f"/>
      <path id="Path_1002" data-name="Path 1002" d="M705.014,18.676h.564v.61a1.349,1.349,0,0,1,.339-.433.881.881,0,0,1,.623-.255l.056,0,.135.013v.626a.884.884,0,0,0-.1-.013q-.044,0-.1,0a.846.846,0,0,0-.689.288,1.007,1.007,0,0,0-.241.664v2.03h-.593v-3.53Z" transform="translate(-628.132 -17.242)" fill="#004e9f"/>
      <path id="Path_1003" data-name="Path 1003" d="M725.9,18.773a1.335,1.335,0,0,1,.534.456,1.576,1.576,0,0,1,.236.623,4.1,4.1,0,0,1,.053.778h-2.567a1.527,1.527,0,0,0,.252.864.839.839,0,0,0,.729.325.937.937,0,0,0,.736-.308,1.045,1.045,0,0,0,.218-.414h.583a1.222,1.222,0,0,1-.153.433,1.554,1.554,0,0,1-.29.391,1.371,1.371,0,0,1-.664.356,2,2,0,0,1-.481.053,1.473,1.473,0,0,1-1.11-.479,1.873,1.873,0,0,1-.455-1.343,2.036,2.036,0,0,1,.458-1.381,1.509,1.509,0,0,1,1.2-.53A1.591,1.591,0,0,1,725.9,18.773Zm.213,1.386a1.545,1.545,0,0,0-.167-.616.852.852,0,0,0-.807-.429.891.891,0,0,0-.68.3,1.118,1.118,0,0,0-.291.75Z" transform="translate(-644.607 -17.242)" fill="#004e9f"/>
      <path id="Path_1004" data-name="Path 1004" d="M759.566,18.676h.564v.5a1.582,1.582,0,0,1,.531-.445,1.415,1.415,0,0,1,.623-.135,1.027,1.027,0,0,1,1.015.524,1.862,1.862,0,0,1,.145.821v2.264h-.6V19.981a1.2,1.2,0,0,0-.1-.521.579.579,0,0,0-.573-.329,1.168,1.168,0,0,0-.346.043.893.893,0,0,0-.429.29.877.877,0,0,0-.193.361,2.438,2.438,0,0,0-.044.532v1.849h-.593v-3.53Z" transform="translate(-676.699 -17.242)" fill="#004e9f"/>
      <path id="Path_1005" data-name="Path 1005" d="M793.782,7.362h.6v.672h-.6Zm0,1.328h.6V12.2h-.6Z" transform="translate(-707.161 -7.24)" fill="#004e9f"/>
      <path id="Path_1006" data-name="Path 1006" d="M807.511,18.951a1.623,1.623,0,0,1,.341.336v-.445h.547v3.21a2.376,2.376,0,0,1-.2,1.061,1.414,1.414,0,0,1-1.389.718,1.7,1.7,0,0,1-.956-.256,1,1,0,0,1-.433-.8h.6a.675.675,0,0,0,.17.366,1.075,1.075,0,0,0,1.518-.283,2.72,2.72,0,0,0,.115-1.012,1.161,1.161,0,0,1-.427.4,1.526,1.526,0,0,1-1.66-.275,1.8,1.8,0,0,1-.428-1.346,2.045,2.045,0,0,1,.432-1.384,1.333,1.333,0,0,1,1.042-.5A1.279,1.279,0,0,1,807.511,18.951Zm.073.636a.86.86,0,0,0-.685-.316.847.847,0,0,0-.853.587,2.313,2.313,0,0,0-.121.821,1.461,1.461,0,0,0,.241.908.776.776,0,0,0,.647.311.908.908,0,0,0,.895-.577,1.865,1.865,0,0,0,.144-.761A1.477,1.477,0,0,0,807.584,19.586Z" transform="translate(-717.429 -17.375)" fill="#004e9f"/>
      <path id="Path_1007" data-name="Path 1007" d="M841.665,7.362h.6v.672h-.6Zm0,1.328h.6V12.2h-.6Z" transform="translate(-749.791 -7.24)" fill="#004e9f"/>
      <path id="Path_1008" data-name="Path 1008" d="M855.332,18.676h.564v.5a1.582,1.582,0,0,1,.531-.445,1.415,1.415,0,0,1,.623-.135,1.027,1.027,0,0,1,1.015.524,1.857,1.857,0,0,1,.145.821v2.264h-.6V19.981a1.2,1.2,0,0,0-.1-.521.579.579,0,0,0-.573-.329,1.168,1.168,0,0,0-.346.043.892.892,0,0,0-.429.29.877.877,0,0,0-.193.361,2.44,2.44,0,0,0-.044.532v1.849h-.593v-3.53Z" transform="translate(-761.958 -17.242)" fill="#004e9f"/>
      <path id="Path_1009" data-name="Path 1009" d="M889.609,18.951a1.63,1.63,0,0,1,.342.336v-.445h.547v3.21a2.372,2.372,0,0,1-.2,1.061,1.414,1.414,0,0,1-1.389.718,1.7,1.7,0,0,1-.956-.256,1,1,0,0,1-.434-.8h.6a.67.67,0,0,0,.17.366,1.075,1.075,0,0,0,1.518-.283,2.729,2.729,0,0,0,.115-1.012,1.162,1.162,0,0,1-.427.4,1.526,1.526,0,0,1-1.66-.275,1.8,1.8,0,0,1-.428-1.346,2.044,2.044,0,0,1,.432-1.384,1.333,1.333,0,0,1,1.043-.5A1.279,1.279,0,0,1,889.609,18.951Zm.073.636A.86.86,0,0,0,889,19.27a.846.846,0,0,0-.852.587,2.313,2.313,0,0,0-.121.821,1.462,1.462,0,0,0,.241.908.777.777,0,0,0,.648.311.909.909,0,0,0,.9-.577,1.867,1.867,0,0,0,.144-.761A1.475,1.475,0,0,0,889.682,19.586Z" transform="translate(-790.52 -17.375)" fill="#004e9f"/>
    </g>
  </g>
</svg>
